<svg width="30" height="30" viewBox="0 0 30 30" fill="none" xmlns="http://www.w3.org/2000/svg">
<path fill-rule="evenodd" clip-rule="evenodd" d="M20 3H10C6.13401 3 3 6.13401 3 10V20C3 23.866 6.13401 27 10 27H20C23.866 27 27 23.866 27 20V10C27 6.13401 23.866 3 20 3ZM10 0C4.47715 0 0 4.47715 0 10V20C0 25.5228 4.47715 30 10 30H20C25.5228 30 30 25.5228 30 20V10C30 4.47715 25.5228 0 20 0H10ZM15.5 19C17.433 19 19 17.433 19 15.5C19 13.567 17.433 12 15.5 12C13.567 12 12 13.567 12 15.5C12 17.433 13.567 19 15.5 19ZM15.5 22C19.0899 22 22 19.0899 22 15.5C22 11.9101 19.0899 9 15.5 9C11.9101 9 9 11.9101 9 15.5C9 19.0899 11.9101 22 15.5 22ZM22.9903 8.85217C23.992 8.85217 24.804 8.03747 24.804 7.0325C24.804 6.02752 23.992 5.21282 22.9903 5.21282C21.9886 5.21282 21.1766 6.02752 21.1766 7.0325C21.1766 8.03747 21.9886 8.85217 22.9903 8.85217Z" fill="white"/>
</svg>
